<svg xmlns="http://www.w3.org/2000/svg" width="910" height="640" viewBox="0 0 240.77084 169.33334"><defs><filter id="a" color-interpolation-filters="sRGB"><feFlood flood-opacity=".498" flood-color="#000" result="flood"/><feComposite in="flood" in2="SourceGraphic" operator="in" result="composite1"/><feGaussianBlur in="composite1" stdDeviation="3" result="blur"/><feOffset dx="6" dy="6" result="offset"/><feComposite in="SourceGraphic" in2="offset" result="composite2"/></filter></defs><g><g transform="translate(0 -127.667) translate(-10.575 174.267)" filter="url(#a)"><g><path fill="#0f0" d="M148.82-21.37c-10 .6-15.23 10.95-14.5 17.42.17 6.33 3.6 11.47 8.43 13.57l-3.74.86c-.17 19.9-.26 39.87-1.92 58.82-6.2-4.1-12.8-6.76-19.8-7.96C156.8 39.54 118.4-3.63 106-12.6l1.5-5.5C89-17.65 73.9-14.8 58.95-8.8 56.9 1.46 55.2 9.36 54.46 19.03c-2.58.36-5.1.73-7.5 1.12-.78 5.52-.96 11.03-.78 16.53 2.6-.4 5.12-.78 7.55-1.13-.16 23.8 3.5 45.84 9.95 66.57L86.26 90.2c-9.8-18.3-14.18-37.35-15.15-56.87 6-.65 11.27-1.1 15.92-1.34.32-5.68.93-11.82 1.73-17.35-6 .58-11.94 1.72-17.7 2.35.16-3.97.42-8.5.8-12.5 9-3.23 16.27-4.57 27.35-5.05-5.27 18.22-6.9 35.5-6.76 49.83-2 .02-4.1 0-6.35-.07l1.72 16.54c1.85.52 3.72 1 5.6 1.45.56 6.12 1.3 12.13 2.02 18.15l15.1-2.66c-1.1-3.82-1.93-7.65-2.53-11.5 8.95 3.24 16.78 8.55 21.08 20.48l5.6-2.88c-.5 3.04-1.05 6.06-1.68 9.02l25.62-8.3c-.44-9.08-.56-18.18-.47-27.3 4.67 11.05 10.23 20.8 18.87 29.73 23.43-27.7 28.7-67.7 25.97-112.42L181.2-10.1c5.42 23.83 5.22 49.2-4.44 77.17-7.13-13.76-10.84-31.33-8.52-54.24l-8.22 2.43c.2-3.26.4-6.5.6-9.76l-2.87.66c3.16-3.25 5.12-7.93 5-12.96.17-8.6-5.23-15.2-13.93-14.57zM111.9 11.6c6.9 7.64 21.2 34.88-5.5 37.5-.16-13.16 1.76-26 5.5-37.5z"/><path fill="#008000" d="M147.62-13.3c-.24.02-.48.03-.73.05-6.62.37-10.94 5.25-12.54 10.05.4 6 3.75 10.8 8.4 12.82l-3.75.86c0 .63 0 1.25 0 1.88.73.53 1.53 1 2.38 1.34l-2.4.53c-.17 18.66-.35 37.3-1.9 55.07-6.2-4.1-12.8-6.76-19.8-7.96 1.26-.7 2.44-1.42 3.55-2.15-.86-.2-1.72-.37-2.6-.52 35.9-18.96 1.03-56.5-10.23-64.3l1.23-4.38c-.15-.13-.3-.26-.44-.38-16.54.4-30.1 2.9-43.53 8.04-1.88 8.94-3.4 15.82-4.1 24.23-2.34.3-4.6.62-6.8.96-.63 4.25-.83 8.48-.75 12.7.03 0 .07 0 .1 0 0 .55 0 1.1 0 1.66 2.35-.34 4.6-.66 6.8-.96-.15 20.7 3.16 39.87 9.03 57.9l14.88-7.52C75.93 69.44 72 51.6 71.1 33.34c6-.66 11.27-1.1 15.92-1.35.25-4.38.67-9.03 1.2-13.47-4.04.52-8.05 1.18-11.97 1.6.05-1.24.12-2.53.2-3.84-1.82.26-3.62.5-5.4.7.16-3.97.42-8.5.8-12.5 9-3.23 16.27-4.57 27.35-5.05-.55 1.9-1.06 3.77-1.53 5.64 1.32-.1 2.7-.18 4.14-.25-4.77 15.85-6.26 30.9-6.12 43.35-1.04 0-2.12 0-3.24 0 0 .35 0 .72 0 1.08-.78 0-1.58 0-2.4 0l1.44 13.24c1.68.45 3.38.85 5.1 1.25.5 5.34 1.16 10.56 1.82 15.8l10.87-1.83c-.5-2.17-.92-4.35-1.26-6.53.96.35 1.9.72 2.8 1.12-.37-1.68-.7-3.36-.98-5.05 8.12 2.8 15.23 7.43 19.14 17.8l5.1-2.5c-.43 2.45-.9 4.88-1.4 7.28l2.03-1.05c-.07.33-.13.66-.18 1l21.27-6.6c-.4-7.9-.52-15.8-.43-23.75.88 2 1.8 3.94 2.76 5.83 0-1.02 0-2.04.02-3.06 2.48 5.86 5.2 11.36 8.52 16.56 1.76 2.24 3.7 4.4 5.83 6.53 21.3-24.07 26.08-58.87 23.6-97.77l-14.05 6.4c4.52 22.66 3.82 46.75-5.3 73.14-1.16-2.26-2.24-4.62-3.2-7.1-.42 1.23-.83 2.46-1.28 3.7-6.48-11.97-9.85-27.25-7.74-47.17l-7.47 2.1c.18-2.82.36-5.65.55-8.48l-2.6.57c1.33-1.32 2.42-2.9 3.2-4.64l-.45.1c.26-.27.5-.55.76-.84.72-1.83 1.1-3.83 1.03-5.9.17-7.26-4.44-12.86-11.9-12.7zM111.9 11.6c2.72 3.02 6.6 9.1 8.66 15.53 2.75 6.9 3.33 14.65-3.63 18.56-2.42 1.72-5.83 2.94-10.52 3.4-.16-13.16 1.76-26 5.5-37.5z" opacity=".6"/><path fill="#fff" d="M149.63-21.4c-.27 0-.54 0-.8.03-10 .6-15.24 10.95-14.5 17.42.16 6.33 3.6 11.47 8.42 13.57l-3.74.86c-.07 9.1-.14 18.23-.34 27.26 10.45-1.24 20.15-3.64 29-6.75-.25-5.66-.08-11.7.58-18.17l-8.22 2.43c.2-3.25.4-6.5.6-9.76l-2.87.66c3.16-3.25 5.12-7.93 5-12.96.17-8.34-4.9-14.8-13.12-14.6zm53.36.93L181.2-10.1c2.48 10.92 3.78 22.17 3.54 33.84 6.97-3.5 13.2-7.3 18.6-11.02.53-10.67.35-21.78-.35-33.2zm-95.5 2.38C89-17.65 73.9-14.8 58.95-8.8 56.9 1.46 55.2 9.36 54.46 19.03c-1.24.17-2.45.35-3.65.52 10.65 5.6 20.94 9.8 30.84 12.8 1.88-.15 3.68-.27 5.38-.36.32-5.68.93-11.82 1.73-17.35-6 .58-11.94 1.72-17.7 2.35.16-3.97.42-8.5.8-12.5 9-3.23 16.27-4.57 27.35-5.05-3.65 12.62-5.55 24.8-6.33 35.84 4.74 1.05 9.38 1.84 13.93 2.38.72-9.12 2.45-17.93 5.1-26.1 4.4 4.9 11.8 17.73 9.67 27.08 4.44.05 8.77-.13 12.98-.5 2.05-20.9-19.77-44.4-28.54-50.77z" opacity=".2"/><path fill="#ff0" d="M78.35 16.13l-3.28 9.04-9.3 2.4 7.12 5.58c5.24-.55 9.95-.93 14.12-1.16.14-2.5.34-5.06.58-7.62l-4.08-.14zm78.1.22l-4.2 11.5-11.85 3.1 9.65 7.53-.74 12.24 10.17-6.86 10.4 4.08c-.6-2.63-1.1-5.36-1.46-8.2l-.9-3.18.5-.6c-.27-2.93-.43-5.97-.45-9.13l-4.5-.15zm34.8 4.3l-1.7 1.56-2.28-.5.97 2.1-1.18 2 2.3-.26 1.54 1.75.45-2.3 2.14-.9-2.04-1.15zm10.22 11.9l-5.48 9.1-10.62.65 6.97 8.03-2.66 10.3 5.87-2.5c2.68-8.05 4.6-16.6 5.9-25.56zM126.64 43.7l-2.1 1.96-2.83-.64 1.22 2.62-1.47 2.48 2.86-.34 1.92 2.17.56-2.83 2.65-1.14-2.52-1.4zm-65.26 4.8l-1.7 1.6-2.27-.53.98 2.12-1.2 2 2.32-.3 1.54 1.76.45-2.28 2.13-.92-2.03-1.14zm41.2 5.25l-3.73 3.45-4.96-1.12L96 60.7l-2.6 4.37 5.05-.6 3.36 3.82 1-5 4.66-2-4.45-2.5zm-33.53 3.03L62.5 67.15l-6.66.26c.4 2.9.87 5.77 1.4 8.6l.86 1.06-.4 1.42c.55 2.85 1.16 5.67 1.83 8.48l6.63-2.65 10.2 6.82-.8-12.23 4.08-3.24c-.8-2.1-1.54-4.2-2.22-6.33l-4.12-1.05zm76.24.86l-1.05 2.08-2.3.33 1.66 1.63-.4 2.3 2.07-1.1 2.05 1.1-.38-2.3 1.67-1.6-2.3-.35zm21.74 5.13l-.57 3.1-2.87 1.27 2.76 1.5.33 3.13 2.27-2.17 3.08.65-1.36-2.83 1.56-2.73-3.1.4zm-42.43 5.1L122.33 70l-3.05-.7 1.3 2.85-1.6 2.7 3.12-.38 2.05 2.35.6-3.07 2.88-1.24L124.9 71zm20.6 5.1l-1.73 4.78-4.93 1.27 4 3.13-.3 5.08 4.22-2.85 4.73 1.86-1.4-4.88 3.22-3.93-5.08-.18zm35.07.08l-1.7 1.58-2.28-.5.97 2.1-1.2 2 2.32-.28 1.52 1.75.46-2.28 2.13-.92-2.02-1.14z" opacity=".2"/><g fill="#ff0"><path d="M103.88-15.28c-12.18 1.18-26.5 3.15-40.8 8.25-2.7 9.7-3.86 18.54-4.6 28.4-2.73.3-5.9.77-7.2 1.73-.8 3.7-.7 5.66-.9 8 .78-2.26 2.25-5.25 3.04-6.03 2.8-.9 5.5-.74 7.27-.97.52-9.86 1.58-19.7 4.04-29.08 12.6-4.15 15.72-5.64 27.98-6.82 7.98-1.04 9.28-2.33 11.16-3.48z"/><path d="M58.17 36.33c-.35 14 1.12 28.02 3.7 41.78 1.22 6.45 2.76 12.83 4.7 19.1-3.16-18.7-5.77-38.7-8.4-60.87z"/><path d="M73.56 19.42l12.37-1.6-.34 2.42z"/><path d="M110.7 52.65c7.4-2.87 12.5-6.55 15.44-12.64-1.82 9.47-8.2 11.37-15.45 12.65z"/><path d="M90.98 61.93l-.9-10.27h2.42z"/><path d="M102.02 5.24c-2.9 11.07-4.86 22.4-5.46 33.86-.12 2.05-.2 4.1-.25 6.16 2.5-13.24 4.8-26.56 5.72-40.02z"/><path d="M143.1 12.47l-1.2 47.33 3.95-47.7z"/><path d="M200.4-15.84l-14.37 6.92c3.4 15.02 2.5 29.4 2.96 43.84 1.47-13.38 2.36-28.25-.92-42.62 5.24-2.06 8.35-5.35 12.33-8.14z"/><path d="M138.47-2.98c2.55-10.38 8.55-15 17.8-14.23-3.68-.83-6.74-3.15-12.33.6-7.06 7.68-5.02 9.9-5.47 13.62z"/></g><circle cx="212.078" cy="-17.717" r="3.349" fill="#33c233" stroke="#000" stroke-width="2.646"/><g style="line-height:1.25" font-size="99.251" font-family="sans-serif" letter-spacing="0" word-spacing="0"><path d="M212-18q.23 0 .33-.08.1-.1.1-.28 0-.2-.1-.28-.1-.08-.32-.08h-.3v.72zm-.3.5v1.06h-.72v-2.8h1.1q.56 0 .8.18.27.2.27.6 0 .27-.13.45-.13.17-.4.25.14.03.26.15t.24.37l.4.8h-.78l-.34-.7q-.1-.22-.2-.3-.12-.07-.3-.07z" style="-inkscape-font-specification:'sans-serif Bold'" font-weight="bold"/></g></g><path fill="none" stroke="#000" stroke-width="4" d="M112.7 11.55c6.9 7.65 21.2 34.9-5.48 37.52-.17-13.17 1.74-26 5.48-37.52zm36.93-32.96c-10 .58-15.24 10.94-14.5 17.4.16 6.34 3.6 11.48 8.43 13.58l-3.75.86c-.16 19.9-.26 39.87-1.92 58.82-6.2-4.1-12.8-6.76-19.8-7.96 39.53-21.8 1.13-64.96-11.27-73.94l1.5-5.5c-18.5.44-33.57 3.32-48.53 9.28C57.7 1.42 56.02 9.32 55.25 19c-2.57.35-5.07.72-7.5 1.1-.76 5.53-.95 11.04-.76 16.54 2.6-.4 5.1-.78 7.54-1.13-.17 23.82 3.48 45.85 9.94 66.58l22.58-11.92C77.28 71.86 72.88 52.8 71.9 33.3c6-.65 11.28-1.1 15.93-1.35.32-5.67.93-11.8 1.73-17.34-6 .6-11.94 1.73-17.7 2.36.16-3.97.4-8.5.8-12.5C81.65 1.23 88.9-.1 100-.6c-5.26 18.23-6.9 35.52-6.75 49.85-2 0-4.1 0-6.35-.07l1.72 16.53c1.85.52 3.73 1 5.6 1.45.57 6.13 1.3 12.14 2.02 18.16l15.1-2.64c-1.1-3.82-1.92-7.65-2.53-11.5 8.95 3.25 16.8 8.56 21.08 20.48l5.6-2.88c-.5 3.05-1.04 6.06-1.67 9.02l25.62-8.3c-.43-9.07-.55-18.17-.46-27.3 4.67 11.05 10.22 20.8 18.86 29.73 23.44-27.68 28.72-67.68 25.98-112.4L182-10.16c5.43 23.84 5.22 49.23-4.43 77.2-7.13-13.78-10.85-31.35-8.53-54.25l-8.2 2.42c.18-3.25.38-6.5.58-9.76l-2.86.66c3.16-3.24 5.1-7.93 4.98-12.96.2-8.6-5.22-15.2-13.9-14.57z" stroke-linejoin="round"/></g></g></svg>