<svg xmlns="http://www.w3.org/2000/svg" xmlns:xlink="http://www.w3.org/1999/xlink" width="900" height="673" viewBox="0 0 238.1 178.1"><defs/><defs><linearGradient id="b"><stop offset="0" stop-color="#fff"/><stop offset=".065" stop-color="#004"/><stop offset=".095" stop-color="#fff"/><stop offset=".139" stop-color="#004"/><stop offset=".373" stop-color="#004"/><stop offset=".407" stop-color="#fff"/><stop offset=".499" stop-color="#004"/><stop offset=".659" stop-color="#004"/><stop offset=".707" stop-color="#fff"/><stop offset=".752" stop-color="#004"/><stop offset="1" stop-color="#004"/></linearGradient><linearGradient id="a"><stop offset="0" stop-color="#ff0500"/><stop offset=".154" stop-color="#ff9600"/><stop offset=".292" stop-color="#f9ff00"/><stop offset=".411" stop-color="#6afb00"/><stop offset=".533" stop-color="#00e359"/><stop offset=".627" stop-color="#2cbad7"/><stop offset=".731" stop-color="#6b73c3"/><stop offset=".823" stop-color="#8d61b5"/><stop offset="1" stop-color="#ff00d5"/></linearGradient><linearGradient id="c" x1="99.139" x2="842.705" y1="336.374" y2="336.374" gradientUnits="userSpaceOnUse" xlink:href="#a"/><linearGradient id="e" x1="69.141" x2="208.55" y1="-12.247" y2="96.223" gradientUnits="userSpaceOnUse" xlink:href="#b"/><filter id="d" color-interpolation-filters="sRGB"><feFlood flood-color="#000" flood-opacity=".498" result="flood"/><feComposite in="flood" in2="SourceGraphic" operator="in" result="composite1"/><feGaussianBlur in="composite1" result="blur" stdDeviation="10"/><feOffset dx="20" dy="20" result="offset"/><feComposite in="SourceGraphic" in2="offset" result="composite2"/></filter></defs><g transform="rotate(-1 2648.495 2472.705) scale(1.15007)"><path fill="url(#c)" d="M825.111 64.504a17.594 17.594 0 00-17.593 17.594A17.594 17.594 0 00825.11 99.69a17.594 17.594 0 0017.594-17.593 17.594 17.594 0 00-17.594-17.594zm-48.308.453l-93.93 47.28a595.382 595.382 0 01-13.264 335.78 410.683 410.683 0 01-41.486-235.29l-35.441 11.484 1.863-42.627-12.113 3.254a78.225 78.225 0 0020.74-56.867c-.218-37.377-24.182-65.646-61.94-62.38l-.008-.433c-43.406 3.366-65.212 48.95-61.677 77.14 1.347 27.36 16.506 49.263 37.957 58.016l-16.444 4.2c.64 86.484 1.716 172.96-4.23 255.648a225.985 225.985 0 00-86.207-33.267c169.982-97.722-.15-282.522-54.713-320.688l6.108-23.578c-80.356 3.141-145.75 16.888-210.038 44.09-8.343 44.915-15.13 79.37-17.878 121.144l-32.063 5.776c-3.059 23.959-3.51 47.872-2.225 71.756l32.504-5.348a943.05 943.05 0 0048.496 288.197l97.3-53.422a574.957 574.957 0 01-70.798-246.082c26.026-3.062 49.025-5.201 69.424-6.861.437-24.783 3.017-51.342 6.076-75.3-26.033 2.627-52.014 8.296-76.736 11.335.131-17.388 1.094-36.964 2.094-54.367a360.706 360.706 0 01118.68-23.805 757.483 757.483 0 00-25.772 216.906l-27.375.479 8.63 71.13 24.448 6.095 10.065 78.496 65.414-12.444c-4.634-16.436-8.84-33.313-11.735-49.779a139.067 139.067 0 0192.803 87.484l24.549-13.033c-1.945 13.074-3.891 26.146-6.705 39.235l110.607-38.006c-2.42-39.077-3.553-79.045-3.808-118.594a404.6 404.6 0 0084.384 128.053C772.371 433.619 791.933 259.417 776.803 64.957zM383.28 211.713c31.11 32.956 94.479 149.719-20.947 162.996-1.866-57.203 5.815-112.84 20.947-162.996z" filter="url(#d)" transform="scale(.2301) rotate(1 10008.163 9335.952)"/><path fill="#fff" fill-opacity=".2" d="M203.204 4.8a1.006 1.006 0 00-1.024.99 1.006 1.006 0 00.989 1.023 1.006 1.006 0 001.024-.989 1.006 1.006 0 00-.989-1.023zm7.826 13.111a2.07 2.07 0 00-2.107 2.035 2.07 2.07 0 002.035 2.106 2.07 2.07 0 002.107-2.034 2.07 2.07 0 00-2.035-2.107zm-33.725.562a10.47 10.47 0 00-10.651 10.286 10.47 10.47 0 00.805 4.179c-5.045.184-10.137.237-15.254.212a696.884 696.884 0 01-.488 16.07c1.883-.33 3.77-.66 5.642-.993a3.49 3.49 0 00-.193 1.078 3.49 3.49 0 003.429 3.551 3.49 3.49 0 003.55-3.429 3.49 3.49 0 00-.072-.751 3.49 3.49 0 001.878.592 3.49 3.49 0 003.538-3.238c4.51-.833 8.962-1.675 13.356-2.524a94.5 94.5 0 01-1.846-24.286 10.47 10.47 0 00-3.694-.747zm-92.171.028a1.124 1.124 0 00-1.144 1.105 1.124 1.124 0 001.104 1.144 1.124 1.124 0 001.144-1.105 1.124 1.124 0 00-1.104-1.144zm130.661 6.517a120.293 120.293 0 01-9.773 2.932c-2.67.678-5.374 1.27-8.102 1.792a137 137 0 01-1.341 11.041 1108.3 1108.3 0 0013.642-2.864 57.754 57.754 0 003.863-.989c.696-3.89 1.262-7.862 1.711-11.912zm-100.368-1.641a2.07 2.07 0 00-2.107 2.034 2.07 2.07 0 002.035 2.107 2.07 2.07 0 002.106-2.035 2.07 2.07 0 00-2.034-2.106zm19.389 3.308a5.43 5.43 0 00-.487.016c2.794 9.552 1.23 19.558-14.418 21.082a119.45 119.45 0 01.762-15.393c-4.766-.147-9.523-.28-14.255-.362a174.3 174.3 0 00-.607 15.955h-6.3l1.005 9.7c2.895-.454 5.796-.912 8.702-1.374a7.368 7.368 0 00-.27 1.82 7.368 7.368 0 007.237 7.496 7.368 7.368 0 007.496-7.238 7.368 7.368 0 00-1.244-4.211 2710.937 2710.937 0 0019.775-3.309c4.48-5.461 6.162-11.545 5.979-17.752-2.7-.034-5.406-.085-8.115-.15a5.43 5.43 0 00.073-.757 5.43 5.43 0 00-5.333-5.523zm-58.465.567a4.072 4.072 0 00-4.143 4 4.072 4.072 0 00.313 1.625c-4.34.373-8.622.878-12.836 1.547.009.32.014.64.026.959l7.5-1.1a217 217 0 00.422 9.653 6.213 6.213 0 011.64-.192 6.213 6.213 0 016.104 6.32 6.213 6.213 0 01-6.32 6.104 6.213 6.213 0 01-.88-.086 217 217 0 00.925 6.397A4576.89 4576.89 0 0088.65 59.52a132.3 132.3 0 01-4.127-27.36c-1.44.052-2.876.112-4.306.186a4.072 4.072 0 00.135-.952 4.072 4.072 0 00-4-4.143zm99.017 3.313a3.063 3.063 0 013.009 3.116 3.063 3.063 0 01-3.116 3.009 3.063 3.063 0 01-3.01-3.116 3.063 3.063 0 013.117-3.009zm-62.684 4.89a3.063 3.063 0 013.01 3.115 3.063 3.063 0 01-3.116 3.01 3.063 3.063 0 01-3.01-3.116 3.063 3.063 0 013.116-3.01zm46.168 5.197a1.663 1.663 0 011.633 1.692 1.663 1.663 0 01-1.691 1.634 1.663 1.663 0 01-1.634-1.692 1.663 1.663 0 011.692-1.634zm38.195 7.042a4.378 4.378 0 00-1.869.389 137 137 0 01-1.533 6.83 4.378 4.378 0 003.25 1.536 4.378 4.378 0 004.453-4.301 4.378 4.378 0 00-4.301-4.454zm-46.195 16.168a341.995 341.995 0 01-.341 4.12 52 52 0 00-3.036-1.826 3.077 3.077 0 00-.098.7 3.077 3.077 0 003.023 3.13 3.077 3.077 0 003.13-3.023 3.077 3.077 0 00-2.678-3.101zM90.564 66.5a4.319 4.319 0 00-4.218 4.237 4.319 4.319 0 004.243 4.394 4.319 4.319 0 002.69-.887 132.3 132.3 0 01-2.715-7.744z"/><path fill-opacity=".2" d="M227.417-21.71a4.048 4.048 0 00-4.119 3.977 4.048 4.048 0 003.977 4.118 4.048 4.048 0 00.589-.038 4.048 4.048 0 01-.057-.733 4.048 4.048 0 013.53-3.94 4.048 4.048 0 00-3.92-3.385zM216.3-21.8l-21.8 10.5a137 137 0 01-3.083 73.045 94.5 94.5 0 003.192 7.502 137 137 0 004.4-77.2l17.577-8.466a382.328 382.328 0 00-.286-5.381zm-54.2-.9c-10 .6-15.2 11-14.5 17.5.198 6.216 3.511 11.262 8.307 13.413-2.261-2.57-3.672-6.077-3.798-10.066-.7-6.5 4.5-16.9 14.5-17.5v.1c2.304-.16 4.374.191 6.175.946-2.43-2.923-6.097-4.61-10.684-4.293zm-41.3 3.3c-18.5.4-33.6 3.3-48.5 9.3C70.2.2 68.5 8.1 67.7 17.7l-7.4 1.2c-.8 5.5-1 11-.8 16.5l4.438-.651c.004-4.167.265-8.335.87-12.502l7.4-1.2c.8-9.6 2.5-17.5 4.6-27.8 13.398-5.395 26.96-8.282 43.007-9.1zM116.91 1.547a83 83 0 00-5.37.321A174.3 174.3 0 00105.6 48h-6.3l1.7 16.4 4.28 1.146-1.472-14.199h6.3a174.3 174.3 0 016.8-49.8zm39.096 6.776L152.3 9.2c-.076 7.564-.138 15.127-.279 22.641.694 4.11.678 8.22-.315 12.186-.276 8.102-.703 16.115-1.406 23.973a52 52 0 00-12.658-6.148 50.642 50.642 0 01-2.533 1.495 52 52 0 0119.7 8c1.7-19 1.8-38.9 2-58.8l3.8-.9a13.167 13.167 0 01-4.604-3.324zM181.5 11.6l-3.397 1.036-.294 4.81 3.238-.986a94.5 94.5 0 01.453-4.86zm-51.818 2.13c-.208.65-.41 1.303-.608 1.96 6.206 9.994 11.865 27.127-4.856 31.348-.026 1.365-.03 2.734-.01 4.109 26.61-2.592 12.499-29.71 5.474-37.417zM102 13.4c-4.386.365-8.771 1.104-13.04 1.71-.066 1.34-.12 2.665-.151 3.937 4.1-.432 8.358-1.171 12.658-1.74.17-1.325.348-2.633.533-3.907zM71.508 37.647l-4.334.635A217 217 0 0077 100.8l3.128-1.647a217 217 0 01-8.62-61.506zm104.4 26.6a589.097 589.097 0 00-.034 6.24A93.1 93.1 0 00190.3 90.7c.265-.312.524-.627.784-.942a93.1 93.1 0 01-15.176-25.511zm-69.064 3.857L108.6 84l4.062-.7-1.554-14.053zm26.25 8.523A32 32 0 01142.2 90.4l2.54-1.292a32 32 0 00-11.645-12.481zm19.315 14.22l-5.61 2.853a85.589 85.589 0 01-.599 2.8l5.547-1.799c.23-1.285.448-2.57.662-3.854z"/><path fill="none" stroke="url(#e)" stroke-linejoin="round" stroke-width="4" d="M125.2 10.3c7 7.7 21.2 35-5.5 37.6-.1-13.2 1.8-26 5.5-37.6zm37-33c-10 .7-15.3 11-14.5 17.5.1 6.3 3.6 11.5 8.4 13.6l-3.8.8c-.1 20-.2 39.9-1.9 58.9a51.4 51.4 0 00-19.8-8c39.5-21.8 1.1-65-11.3-74l1.5-5.4a135 135 0 00-48.5 9.2c-2 10.3-3.8 18.2-4.5 27.9l-7.5 1.1c-.8 5.5-1 11-.8 16.5l7.6-1c-.2 23.7 3.4 45.8 10 66.5l22.5-12a132.3 132.3 0 01-15.2-56.8c6-.7 11.3-1.1 16-1.4.3-5.6.9-11.8 1.7-17.3-6 .6-12 1.7-17.7 2.4.1-4 .4-8.6.8-12.6a85 85 0 0127.3-5 174.3 174.3 0 00-6.7 49.8h-6.4l1.8 16.5 5.6 1.4c.5 6.2 1.2 12.2 2 18.2l15-2.6a125 125 0 01-2.5-11.5 32 32 0 0121.1 20.4l5.6-2.8c-.5 3-1 6-1.7 9l25.7-8.3c-.5-9.1-.6-18.2-.5-27.3a93.1 93.1 0 0018.8 29.7c23.5-27.7 28.8-67.7 26-112.4l-21.8 10.3a137 137 0 01-4.4 77.2 94.5 94.5 0 01-8.5-54.2l-8.2 2.4.5-9.7-2.8.6a18 18 0 005-13c.2-8.6-5.3-15.1-14-14.5z"/><circle cx="164.827" cy="-8.204" r=".8" fill="none"/><circle cx="227.386" cy="-17.617" r="3.417" fill="none" stroke="#004" stroke-width="2.693"/><g style="line-height:1.25"><path fill="#004" d="M227.282-17.928c.384-.015.423-.163.414-.414.01-.207-.162-.298-.414-.31h-.31v.724zm-.31.518v1.036h-.726v-2.9h1.14c.532.037.991.203 1 .826.007.545-.149.716-.483.831.337.06.41.32.518.518l.414.828h-.828l-.31-.725c-.165-.31-.285-.37-.519-.414z" aria-label="R" font-family="sans-serif" font-size="99.3" font-weight="700" letter-spacing="0" word-spacing="0" style="-inkscape-font-specification:'sans-serif Bold'"/></g><path fill="none" stroke="#000" stroke-width=".23" d="M496.649 292.813c-1.488.03-4.19.94-8.298 2.905-42.096 20.137-68.821 62.337-119.605 75.239-6.098 1.55-12.357 2.668-18.734 3.462a10.47 10.47 0 00.303-2.288 10.47 10.47 0 00-10.286-10.65 10.47 10.47 0 00-10.65 10.285 10.47 10.47 0 00.804 4.179c-9.018.33-18.181.248-27.382.028a5.43 5.43 0 00.073-.758 5.43 5.43 0 00-5.334-5.523 5.43 5.43 0 00-5.523 5.334 5.43 5.43 0 00.034.642c-16.59-.52-33.168-1.149-49.11-.314a4.072 4.072 0 00.135-.952 4.072 4.072 0 00-4-4.143 4.072 4.072 0 00-4.144 4 4.072 4.072 0 00.313 1.625c-31.149 2.679-59.41 12.116-79.942 40.597 30.674-4.339 73.253-10.258 116.64-17.166a7.368 7.368 0 00-.271 1.822 7.368 7.368 0 007.238 7.495 7.368 7.368 0 007.495-7.238 7.368 7.368 0 00-1.243-4.211 2506.314 2506.314 0 0034.921-5.95 3.49 3.49 0 00-.192 1.08 3.49 3.49 0 003.428 3.55 3.49 3.49 0 003.551-3.429 3.49 3.49 0 00-.073-.751 3.49 3.49 0 001.878.592 3.49 3.49 0 003.539-3.238c14.233-2.629 27.958-5.34 40.731-8.111 41.985-9.108 136.502-87.286 123.985-88.107a3.205 3.205 0 00-.281-.006zm-130.72 54.995a1.006 1.006 0 00-1.024.988 1.006 1.006 0 00.988 1.024 1.006 1.006 0 001.024-.989 1.006 1.006 0 00-.988-1.023zm7.826 13.11a2.07 2.07 0 00-2.107 2.035 2.07 2.07 0 002.034 2.106 2.07 2.07 0 002.107-2.034 2.07 2.07 0 00-2.034-2.107zm-125.897.59a1.124 1.124 0 00-1.144 1.105 1.124 1.124 0 001.105 1.144 1.124 1.124 0 001.144-1.105 1.124 1.124 0 00-1.105-1.144zm30.293 4.876a2.07 2.07 0 00-2.106 2.034 2.07 2.07 0 002.034 2.107 2.07 2.07 0 002.107-2.035 2.07 2.07 0 00-2.035-2.106zm59.941 7.188a3.063 3.063 0 013.01 3.116 3.063 3.063 0 01-3.117 3.009 3.063 3.063 0 01-3.009-3.116 3.063 3.063 0 013.116-3.009zm-62.683 4.89a3.063 3.063 0 013.009 3.115 3.063 3.063 0 01-3.116 3.01 3.063 3.063 0 01-3.009-3.116 3.063 3.063 0 013.116-3.01zm46.167 5.197a1.663 1.663 0 011.634 1.692 1.663 1.663 0 01-1.692 1.634 1.663 1.663 0 01-1.634-1.692 1.663 1.663 0 011.692-1.634zm-89.578 3.092a6.213 6.213 0 016.104 6.32 6.213 6.213 0 01-6.32 6.104 6.213 6.213 0 01-6.104-6.32 6.213 6.213 0 016.32-6.104zm127.774 3.95a4.378 4.378 0 00-4.454 4.301 4.378 4.378 0 004.3 4.454 4.378 4.378 0 004.454-4.301 4.378 4.378 0 00-4.3-4.454zm-46.54 16.139a3.077 3.077 0 00-3.13 3.022 3.077 3.077 0 003.022 3.13 3.077 3.077 0 003.13-3.022 3.077 3.077 0 00-3.022-3.13zm-59.768 2.662a4.319 4.319 0 00-4.393 4.243 4.319 4.319 0 004.242 4.394 4.319 4.319 0 004.394-4.243 4.319 4.319 0 00-4.243-4.394z"/></g></svg>
